<svg xmlns="http://www.w3.org/2000/svg" version="1.1" xmlns:xlink="http://www.w3.org/1999/xlink" width="124" height="181"><svg width="124" height="181" viewBox="0 0 124 181" fill="none" xmlns="http://www.w3.org/2000/svg">
<path d="M122.73 34.56C123.72 35.78 122.85 37.64 121.27 37.64H33.6799C23.6299 37.64 14.8499 29.44 14.5499 19.39C14.3899 13.97 16.5199 9.04001 20.0599 5.51001C23.4599 2.11001 28.1699 0 33.3699 0H121.28C122.86 0 123.73 1.86002 122.74 3.08002C119.26 7.38002 117.17 12.85 117.17 18.82C117.17 24.79 119.26 30.26 122.74 34.56" fill="#EDB110"></path>
<path d="M108.6 65.53C108.75 70.95 106.62 75.86 103.09 79.38C99.69 82.79 94.98 84.89 89.78 84.89H1.90997C0.859973 84.89 0 84.03 0 82.98V49.16C0 48.11 0.859973 47.25 1.90997 47.25H89.46C99.52 47.25 108.31 55.47 108.59 65.52" fill="#EDB110"></path>
<path d="M89.0701 114.21L97.3201 128.51C98.4701 130.5 97.0601 133.03 94.7601 133.04H42.1301C32.0801 133.04 23.2901 124.83 23.0001 114.78C22.8401 109.36 24.9801 104.44 28.5101 100.91C31.9101 97.5 36.6201 95.4 41.8201 95.4H94.7701C97.0701 95.4 98.4801 97.93 97.3301 99.93L89.0801 114.22L89.0701 114.21Z" fill="#EDB110"></path>
<path d="M71.65 161.33C71.81 166.75 69.68 171.68 66.14 175.21C63.95 177.4 61.22 179.06 58.17 179.96C55.94 180.62 53.55 179.61 52.39 177.6L37.14 151.18C35.08 147.62 37.6101 143.1 41.7201 143.09H52.52C62.57 143.09 71.35 151.29 71.65 161.34" fill="#EDB110"></path>
</svg><style>@media (prefers-color-scheme: light) { :root { filter: none; } }
@media (prefers-color-scheme: dark) { :root { filter: none; } }
</style></svg>